<svg width="60" height="60" viewBox="0 0 60 60" fill="none" xmlns="http://www.w3.org/2000/svg">
<path d="M29.9929 9.60657C27.5443 9.60657 27.0862 11.8596 27.2284 14.1903L27.5917 22.4409C27.7104 22.9826 28.0142 23.468 28.4526 23.8162C28.8909 24.1644 29.4373 24.3542 30.0008 24.3542C30.5642 24.3542 31.1106 24.1644 31.5489 23.8162C31.9873 23.468 32.2911 22.9826 32.4098 22.4409L32.7731 14.1903C32.9153 11.7353 32.4572 9.60657 29.9929 9.60657Z" stroke="#252525" stroke-miterlimit="10"/>
<path d="M29.9913 32.9133C31.4832 32.9133 32.6926 31.7238 32.6926 30.2563C32.6926 28.7889 31.4832 27.5994 29.9913 27.5994C28.4994 27.5994 27.29 28.7889 27.29 30.2563C27.29 31.7238 28.4994 32.9133 29.9913 32.9133Z" stroke="#252525" stroke-miterlimit="10"/>
<path d="M56.1991 50.3159H54.8248C54.7798 48.6169 54.3374 46.951 53.5319 45.4474C52.7265 43.9438 51.5797 42.6429 50.1805 41.6457C50.5108 41.313 50.6976 40.8677 50.7018 40.4027V40.2007C50.6977 39.7336 50.5061 39.287 50.1688 38.9582C49.8315 38.6294 49.3759 38.4449 48.901 38.4449H48.3639L45.6468 9.80852C45.4857 8.14211 44.6988 6.59464 43.4398 5.46835C42.1808 4.34206 40.5402 3.71786 38.8384 3.71765H21.1932C19.4897 3.71751 17.8471 4.34118 16.5856 5.46716C15.324 6.59315 14.5338 8.14078 14.369 9.80852L11.6361 38.4449H11.099C10.6241 38.4449 10.1684 38.6294 9.83117 38.9582C9.4939 39.287 9.30235 39.7336 9.29818 40.2007V40.4027C9.30243 40.8677 9.48921 41.313 9.81948 41.6457C8.42029 42.6429 7.27347 43.9438 6.46804 45.4474C5.66261 46.951 5.22023 48.6169 5.17519 50.3159H3.80084C3.32596 50.3159 2.87029 50.5003 2.53301 50.8292C2.19574 51.158 2.00417 51.6046 2 52.0717V54.5267C2.00417 54.9938 2.19574 55.4403 2.53301 55.7691C2.87029 56.098 3.32596 56.2825 3.80084 56.2824H56.1991C56.674 56.2825 57.1297 56.098 57.467 55.7691C57.8043 55.4403 57.9958 54.9938 58 54.5267V52.0717C57.9958 51.6046 57.8043 51.158 57.467 50.8292C57.1297 50.5003 56.674 50.3159 56.1991 50.3159Z" stroke="#252525" stroke-width="1.6" stroke-miterlimit="10"/>
<path d="M29.9909 9.60657C27.5424 9.60657 27.0843 11.8596 27.2264 14.1903L27.5898 22.4409C27.7085 22.9826 28.0123 23.468 28.4506 23.8162C28.889 24.1644 29.4354 24.3542 29.9988 24.3542C30.5622 24.3542 31.1086 24.1644 31.547 23.8162C31.9853 23.468 32.2891 22.9826 32.4078 22.4409L32.7712 14.1903C32.9133 11.7353 32.4552 9.60657 29.9909 9.60657Z" stroke="#252525" stroke-miterlimit="10"/>
<path d="M29.9913 32.9135C31.4832 32.9135 32.6926 31.7239 32.6926 30.2565C32.6926 28.7891 31.4832 27.5995 29.9913 27.5995C28.4994 27.5995 27.29 28.7891 27.29 30.2565C27.29 31.7239 28.4994 32.9135 29.9913 32.9135Z" stroke="#252525" stroke-miterlimit="10"/>
<path d="M56.1981 50.6733H3.7998" stroke="#252525" stroke-miterlimit="10"/>
<path d="M48.2993 38.8024H11.0977" stroke="#252525" stroke-miterlimit="10"/>
<path d="M9.3125 42.0342H49.9895" stroke="#252525" stroke-miterlimit="10"/>
</svg>
