<svg width="16" height="16" viewBox="0 0 16 16" fill="none" xmlns="http://www.w3.org/2000/svg">
<g clip-path="url(#clip0_2004_2071)">
<path d="M6.65725 9.34412L1.76051 7.87993C1.55316 7.77754 1.37999 7.61718 1.26199 7.4183C1.144 7.21942 1.08623 6.99057 1.09574 6.75951C1.10524 6.52845 1.18159 6.30511 1.31553 6.11659C1.44947 5.92808 1.63524 5.78247 1.8503 5.69745L13.2738 1.17365C13.4907 1.08843 13.7278 1.06849 13.9559 1.1163C14.1839 1.16411 14.3931 1.27757 14.5575 1.44273C14.7219 1.60788 14.8344 1.81751 14.8812 2.04581C14.928 2.27411 14.907 2.51111 14.8208 2.72763L10.297 14.1511C10.2134 14.3666 10.0687 14.5529 9.88067 14.6874C9.69267 14.8218 9.46954 14.8985 9.23862 14.9081C9.00769 14.9176 8.77902 14.8595 8.58059 14.741C8.38215 14.6225 8.22257 14.4487 8.12144 14.2409L6.65725 9.34412Z" stroke="#476BF0" stroke-width="1.6" stroke-miterlimit="10"/>
</g>
<defs>
<clipPath id="clip0_2004_2071">
<rect width="16" height="16" fill="white"/>
</clipPath>
</defs>
</svg>
