<svg width="18" height="18" viewBox="0 0 18 18" fill="none" xmlns="http://www.w3.org/2000/svg">
<path d="M9.00028 9.11095C11.5112 9.11095 13.5463 7.07544 13.5463 4.56405C13.5463 2.05267 11.5112 0.0175781 9.00028 0.0175781C6.48843 0.0175781 4.4525 2.05267 4.4525 4.56405C4.45246 7.07544 6.48843 9.11095 9.00028 9.11095ZM9.00028 2.3272C10.2354 2.3272 11.2366 3.32852 11.2366 4.56402C11.2366 5.79955 10.2354 6.80084 9.00028 6.80084C7.7639 6.80084 6.763 5.79955 6.763 4.56402C6.763 3.32852 7.76387 2.3272 9.00028 2.3272ZM14.2406 9.66579C13.9844 9.15001 13.2735 8.72107 12.3283 9.46536C11.0507 10.4715 9.00024 10.4715 9.00024 10.4715C9.00024 10.4715 6.94849 10.4715 5.67087 9.46536C4.72612 8.72107 4.01561 9.15001 3.75904 9.66579C3.3108 10.5645 3.81649 10.9991 4.95773 11.7316C5.93229 12.3575 7.27175 12.5912 8.13624 12.6785L7.41431 13.4005C6.39766 14.4167 5.41652 15.3987 4.73537 16.0798C4.3279 16.4868 4.3279 17.147 4.73537 17.554L4.85771 17.6772C5.26517 18.0842 5.92484 18.0842 6.33227 17.6772L9.01121 14.9978C10.0287 16.0145 11.0099 16.9961 11.691 17.6772C12.0985 18.0842 12.7581 18.0842 13.1656 17.6772L13.2879 17.554C13.6954 17.1465 13.6954 16.4868 13.2879 16.0794L10.609 13.4005L9.8853 12.6764C10.7506 12.5869 12.0752 12.3522 13.0418 11.7316C14.1831 10.9991 14.688 10.5645 14.2406 9.66579Z" fill="#476BF0"/>
</svg>
