<svg width="16" height="16" viewBox="0 0 16 16" fill="none" xmlns="http://www.w3.org/2000/svg">
<g clip-path="url(#clip0_2248_4249)">
<path d="M14.8075 11.2C14.8075 11.2 11.8984 9.09094 11.0912 9.23639C10.713 9.30185 10.4948 9.56365 10.0585 10.08C9.99301 10.16 9.82573 10.3637 9.69482 10.5018C9.42074 10.4147 9.15334 10.3078 8.8948 10.1818C7.5585 9.52918 6.47838 8.44905 5.82573 7.11275C5.69977 6.85421 5.59282 6.58683 5.50573 6.31274C5.64391 6.18184 5.84756 6.01458 5.92756 5.94185C6.44392 5.51276 6.70572 5.29457 6.77117 4.91639C6.90936 4.13094 4.82935 1.22184 4.80753 1.20002C4.71342 1.06429 4.59012 0.95139 4.44664 0.869585C4.30317 0.787779 4.14316 0.739152 3.97843 0.727295C3.13479 0.727295 0.727539 3.8473 0.727539 4.36366C0.727539 4.36366 0.771188 7.50549 4.60392 11.3964C8.43664 15.2873 11.6003 15.2655 11.6294 15.2655C12.153 15.2655 15.2657 12.8582 15.2657 12.0146C15.2536 11.8517 15.2057 11.6935 15.1252 11.5514C15.0447 11.4093 14.9337 11.2868 14.8002 11.1927L14.8075 11.2Z" stroke="#476BF0" stroke-width="1.6" stroke-miterlimit="10"/>
</g>
<defs>
<clipPath id="clip0_2248_4249">
<rect width="16" height="16" fill="white"/>
</clipPath>
</defs>
</svg>
