<svg width="20" height="20" viewBox="0 0 20 20" fill="none" xmlns="http://www.w3.org/2000/svg">
<g clip-path="url(#clip0_2051_3271)">
<path d="M12.8396 2.81793L17.1493 7.12761M6.10634 18.1614L1.23174 19.0726C1.18808 19.0807 1.14309 19.0781 1.10066 19.065C1.05823 19.0518 1.01967 19.0286 0.98827 18.9972C0.956864 18.9658 0.933563 18.9272 0.920424 18.8847C0.907285 18.8423 0.904703 18.7973 0.912861 18.7537L1.824 13.87L14.1881 1.50589C14.574 1.13188 15.0903 0.922753 15.6277 0.922783C16.1625 0.922228 16.6761 1.1316 17.0581 1.50589L18.4978 2.9455C18.6863 3.13475 18.8356 3.35931 18.9372 3.60633C19.0388 3.85335 19.0908 4.11798 19.09 4.38508C19.0906 4.65081 19.0385 4.91401 18.9369 5.15953C18.8352 5.40504 18.686 5.62801 18.4978 5.81557L6.10634 18.1614Z" stroke="#476BF0" stroke-width="1.6" stroke-miterlimit="10"/>
</g>
<defs>
<clipPath id="clip0_2051_3271">
<rect width="20" height="20" fill="white"/>
</clipPath>
</defs>
</svg>
