<svg width="60" height="60" viewBox="0 0 60 60" fill="none" xmlns="http://www.w3.org/2000/svg">
<g clip-path="url(#clip0_2192_2855)">
<path d="M6.92056 44.9725L1.3944 48.6686C1.29742 48.729 1.21385 48.8087 1.14882 48.9026C1.08379 48.9966 1.03867 49.1029 1.01626 49.215C0.993848 49.327 0.994613 49.4425 1.0185 49.5542C1.04239 49.666 1.0889 49.7716 1.15517 49.8647C1.22679 49.9829 1.33049 50.0783 1.45421 50.1398L6.23876 52.7474V57.9865C6.23876 58.098 6.26072 58.2085 6.3034 58.3115C6.34608 58.4145 6.40865 58.5082 6.48751 58.587C6.56637 58.6659 6.65998 58.7284 6.76302 58.7711C6.86605 58.8138 6.9765 58.8358 7.08802 58.8358C7.23935 58.8329 7.38749 58.7917 7.51863 58.7161L16.9442 53.1541C17.1258 53.0442 17.2597 52.8703 17.3195 52.6666C17.3793 52.4629 17.3606 52.2443 17.2671 52.0537L16.1428 49.6614M42.7329 52.0537C42.6405 52.2457 42.6237 52.4654 42.6857 52.6692C42.7478 52.8731 42.8841 53.0461 43.0678 53.1541L52.4815 58.7161C52.611 58.7895 52.7572 58.8281 52.9061 58.8281C53.0549 58.8281 53.2012 58.7895 53.3307 58.7161C53.4618 58.6418 53.5708 58.534 53.6465 58.4037C53.7222 58.2734 53.7618 58.1252 53.7613 57.9745V52.7355L58.5459 50.1279C58.6481 50.073 58.7382 49.9981 58.8108 49.9076C58.8833 49.8171 58.9368 49.7129 58.9681 49.6012C58.9994 49.4894 59.0078 49.3726 58.9928 49.2575C58.9778 49.1425 58.9397 49.0317 58.8808 48.9317C58.8118 48.8133 58.718 48.7113 58.6057 48.6327L53.0795 44.9366" stroke="#252525" stroke-miterlimit="10"/>
<path d="M11.7168 52.4485L16.3219 53.2379C16.4741 53.263 16.6301 53.2462 16.7734 53.1893C16.9167 53.1324 17.0418 53.0375 17.1353 52.915C17.2297 52.7896 17.2875 52.6405 17.3022 52.4842C17.317 52.328 17.2882 52.1707 17.219 52.0298L16.1784 49.8409M43.9647 49.3624L42.7446 52.0298C42.6957 52.1303 42.6672 52.2395 42.6606 52.351C42.654 52.4626 42.6694 52.5743 42.7061 52.6799C42.7428 52.7855 42.7999 52.8828 42.8743 52.9662C42.9486 53.0496 43.0387 53.1176 43.1393 53.1661C43.3005 53.2383 43.4789 53.2632 43.6537 53.2379L48.4382 52.4365" stroke="#252525" stroke-miterlimit="10"/>
<path d="M13.4991 38.4178C13.4008 38.2176 13.2287 38.0634 13.019 37.9875C12.8093 37.9117 12.5783 37.9201 12.3747 38.0111C10.1367 38.9829 8.10633 40.3757 6.39401 42.1138C6.28526 42.2434 6.21706 42.402 6.19792 42.5701C6.17877 42.7381 6.20954 42.9081 6.28637 43.0588L10.9632 51.9939C11.0364 52.1304 11.145 52.2447 11.2776 52.3247C11.4102 52.4047 11.562 52.4475 11.7168 52.4485C11.8363 52.4453 11.9539 52.4182 12.0628 52.3689C12.1716 52.3196 12.2696 52.249 12.3508 52.1614C12.8179 51.6726 13.3397 51.2392 13.9058 50.8696C15.4884 49.8169 17.2066 48.984 19.0133 48.3936C19.2249 48.3225 19.4 48.1709 19.5008 47.9717C19.6015 47.7725 19.6197 47.5416 19.5515 47.329C19.5094 47.2135 19.4443 47.1076 19.3601 47.018C16.9851 44.4623 15.0091 41.5629 13.4991 38.4178Z" stroke="#252525" stroke-miterlimit="10"/>
<path d="M47.5294 38.0111C47.3258 37.9201 47.0948 37.9117 46.8851 37.9875C46.6754 38.0634 46.5033 38.2176 46.405 38.4178C44.904 41.5653 42.9317 44.4654 40.5559 47.018C40.3981 47.1771 40.3096 47.392 40.3096 47.6161C40.3096 47.8401 40.3981 48.0551 40.5559 48.2141C40.6493 48.2966 40.7595 48.3578 40.8788 48.3936C42.682 48.9835 44.3963 49.8165 45.9744 50.8696C46.5378 51.2383 47.0592 51.6675 47.5294 52.1494C47.6016 52.2347 47.6902 52.3046 47.7898 52.3551C47.8895 52.4056 47.9983 52.4357 48.1098 52.4435C48.2212 52.4513 48.3332 52.4367 48.4389 52.4006C48.5447 52.3644 48.6421 52.3075 48.7255 52.2331C48.8027 52.1651 48.8675 52.0842 48.9169 51.9939L53.5938 43.0588C53.6738 42.9089 53.7064 42.7383 53.6871 42.5695C53.6679 42.4008 53.5978 42.2418 53.4861 42.1138" stroke="#252525" stroke-miterlimit="10"/>
<path d="M18.3311 48.3936L18.7617 48.8242C21.863 51.9155 25.5684 54.3342 29.6465 55.9292C29.745 55.9707 29.8507 55.992 29.9575 55.992C30.0643 55.992 30.1701 55.9707 30.2685 55.9292C34.4559 54.2862 38.2502 51.7797 41.4046 48.573" stroke="#252525" stroke-width="1.6" stroke-miterlimit="10"/>
<path d="M48.2955 38.3938C49.6246 35.4627 50.6544 32.4051 51.3696 29.2673C52.7952 23.1364 53.2832 16.8248 52.8169 10.5477C52.7984 10.3541 52.713 10.1731 52.5755 10.0356C52.438 9.89805 52.2569 9.8127 52.0634 9.79414C46.5949 9.19992 41.2829 7.60227 36.394 5.08135C34.3091 4.04128 32.3336 2.79507 30.497 1.36136C30.3443 1.23388 30.1517 1.16406 29.9527 1.16406C29.7538 1.16406 29.5612 1.23388 29.4085 1.36136C23.1218 6.05939 15.6832 8.97284 7.87804 9.79414C7.68314 9.81228 7.50048 9.8972 7.36099 10.0345C7.22149 10.1718 7.13372 10.3531 7.11251 10.5477C6.64626 16.8248 7.13424 23.1364 8.55983 29.2673C9.24364 32.2413 10.2048 35.1447 11.4306 37.9393" stroke="#252525" stroke-width="1.6" stroke-miterlimit="10"/>
<path d="M47.5291 14.818C47.5058 14.6242 47.4173 14.4441 47.2782 14.3072C47.1392 14.1703 46.9577 14.0847 46.7636 14.0644C40.854 13.4403 35.2199 11.2428 30.4483 7.70096C30.2956 7.57348 30.103 7.50366 29.904 7.50366C29.7051 7.50366 29.5125 7.57348 29.3598 7.70096C24.5945 11.2543 18.9572 13.453 13.0445 14.0644C12.8517 14.0852 12.6719 14.1712 12.5348 14.3083C12.3977 14.4454 12.3116 14.6252 12.2909 14.818C11.9317 19.6306 12.3027 24.47 13.3914 29.1716C14.2998 33.3178 15.9929 37.252 18.3793 40.7622C21.154 44.7672 25.0605 47.8533 29.599 49.6256C29.6975 49.667 29.8032 49.6884 29.91 49.6884C30.0168 49.6884 30.1226 49.667 30.221 49.6256C34.7577 47.8501 38.6634 44.7647 41.4408 40.7622C43.8279 37.2538 45.5173 33.3187 46.4167 29.1716C47.505 24.4699 47.88 19.6312 47.5291 14.818Z" stroke="#252525" stroke-miterlimit="10"/>
<path d="M27.5067 35.858C27.2066 35.8585 26.9095 35.7996 26.6323 35.6846C26.3552 35.5696 26.1035 35.4009 25.8919 35.1882L20.7007 29.997C20.2756 29.567 20.0371 28.9868 20.0371 28.3822C20.0371 27.7776 20.2756 27.1973 20.7007 26.7674C21.1306 26.3423 21.7108 26.1039 22.3155 26.1039C22.9201 26.1039 23.5003 26.3423 23.9303 26.7674L27.5187 30.3558L36.2744 21.6001C36.4857 21.3867 36.7372 21.2173 37.0144 21.1017C37.2915 20.9861 37.5889 20.9266 37.8892 20.9266C38.1895 20.9266 38.4868 20.9861 38.764 21.1017C39.0411 21.2173 39.2927 21.3867 39.504 21.6001C39.9284 22.028 40.1665 22.6062 40.1665 23.2089C40.1665 23.8116 39.9284 24.3898 39.504 24.8177L29.1334 35.2002C28.7045 35.6276 28.1242 35.8683 27.5187 35.87L27.5067 35.858Z" stroke="#252525" stroke-width="1.6" stroke-miterlimit="10"/>
</g>
<defs>
<clipPath id="clip0_2192_2855">
<rect width="60" height="60" fill="white"/>
</clipPath>
</defs>
</svg>
