<svg width="108" height="30" viewBox="0 0 108 30" fill="none" xmlns="http://www.w3.org/2000/svg">
<path d="M30.0017 5.82849C30.0017 2.60898 27.3917 -0.000955977 24.1722 -0.000955836C20.9527 -0.000955696 18.3428 2.60898 18.3428 5.82849C18.3428 9.04801 20.9527 11.6579 24.1722 11.6579C27.3917 11.6579 30.0017 9.04801 30.0017 5.82849Z" fill="#BBC9FF"/>
<path d="M1.78394 19.7427L1.71399 19.8093C1.65403 19.8692 1.60406 19.9325 1.54743 19.9958C1.4908 20.0591 1.41085 20.1457 1.34756 20.2223C1.28427 20.299 1.22431 20.3822 1.16768 20.4622C1.11105 20.5421 1.04443 20.6221 0.991129 20.7054C0.937831 20.7886 0.887868 20.8752 0.837901 20.9619C0.787934 21.0485 0.734636 21.1317 0.691331 21.215C0.648027 21.2983 0.601386 21.3949 0.561413 21.4882C0.52144 21.5814 0.478133 21.6581 0.444822 21.748C0.411511 21.8379 0.374869 21.9345 0.341558 22.0311L0.251622 22.2943C0.221642 22.3909 0.201652 22.4908 0.175003 22.5874L0.115045 22.8572C0.0950584 22.9538 0.0817393 23.0538 0.0684148 23.1537L0.0317673 23.4269C0.0317673 23.5268 0.0317714 23.6234 0.0151158 23.72L0.0151158 24.0031L0.0151159 24.293C0.0151159 24.3896 0.0151118 24.4828 0.0317674 24.5794L0.0684149 24.8626C0.0684149 24.9592 0.0950585 25.0524 0.115045 25.149C0.135032 25.2456 0.155019 25.3356 0.178337 25.4255C0.201655 25.5155 0.221642 25.6154 0.251622 25.712L0.341558 25.9852C0.37487 26.0751 0.404856 26.1684 0.441498 26.2583C0.47814 26.3483 0.521443 26.4382 0.564748 26.5281L0.687997 26.7913C0.734633 26.8779 0.787928 26.9645 0.841225 27.0511C0.894523 27.1377 0.937832 27.2177 0.99113 27.301L1.17101 27.5508C1.22764 27.6307 1.28427 27.7107 1.34756 27.784C1.41085 27.8573 1.48414 27.9405 1.55409 28.0205C1.62404 28.1004 1.65736 28.1404 1.71399 28.2004L1.76062 28.2403L1.80059 28.287C1.86055 28.3436 1.92051 28.3936 1.98047 28.4469C2.04043 28.5002 2.13703 28.5901 2.21698 28.6534C2.29692 28.7167 2.37021 28.77 2.44682 28.8299C2.52344 28.8899 2.61672 28.9532 2.70333 29.0098C2.78994 29.0664 2.86321 29.1098 2.94649 29.1597C3.02977 29.2097 3.12305 29.2663 3.21299 29.3129C3.30293 29.3596 3.38287 29.3962 3.46948 29.4362C3.55609 29.4762 3.64936 29.5228 3.74263 29.5595C3.8359 29.5961 3.92251 29.6261 4.01245 29.6561C4.10239 29.686 4.19899 29.7227 4.29226 29.7493C4.38307 29.7777 4.47536 29.8011 4.56874 29.8193C4.66201 29.8459 4.75862 29.8692 4.85522 29.8892C4.95183 29.9092 5.03843 29.9159 5.1317 29.9292C5.22497 29.9425 5.32491 29.9592 5.42484 29.9692C5.52477 29.9792 5.60806 29.9692 5.70133 29.9692C5.7946 29.9692 5.90119 29.9692 6.00113 29.9692C6.10106 29.9692 6.181 29.9692 6.27427 29.9692C6.36754 29.9692 6.47414 29.9692 6.57408 29.9692C6.67401 29.9692 6.75396 29.9459 6.8439 29.9325C6.93384 29.9192 7.04376 29.9059 7.1437 29.8859C7.24363 29.8659 7.32357 29.8459 7.41351 29.8259C7.50345 29.806 7.61005 29.7793 7.70665 29.7493C7.80326 29.7193 7.8832 29.6894 7.97314 29.6594C8.06308 29.6294 8.15968 29.5961 8.25295 29.5595C8.34622 29.5228 8.43284 29.4795 8.51945 29.4362C8.60606 29.3929 8.696 29.3562 8.78261 29.3129C8.86922 29.2696 8.95915 29.2097 9.04909 29.1597L9.29227 29.0131L9.55209 28.8266C9.62538 28.77 9.70199 28.7167 9.77527 28.6567C9.84856 28.5968 9.93849 28.5135 10.0218 28.4402C10.105 28.3669 10.1384 28.3403 10.1917 28.287C10.245 28.2337 10.2316 28.2437 10.255 28.2237L10.2816 28.2004C10.8952 27.5701 11.6289 27.0692 12.4393 26.7271C13.2498 26.3851 14.1205 26.2088 15.0001 26.2088C15.8798 26.2088 16.7505 26.3851 17.5609 26.7271C18.3713 27.0692 19.105 27.5701 19.7186 28.2004C20.8314 29.3365 22.3499 29.9841 23.94 30.0006C25.5302 30.0172 27.0619 29.4014 28.198 28.2886C29.3341 27.1759 29.9817 25.6574 29.9983 24.0672C30.0148 22.477 29.399 20.9454 28.2863 19.8093C24.9839 16.4111 20.4997 14.4153 15.7646 14.2363C15.585 9.50141 13.5893 5.0174 10.1917 1.71468C9.6291 1.16371 8.96354 0.728939 8.23295 0.435194C7.50237 0.141449 6.72109 -0.00551444 5.93371 0.00268147C5.14633 0.0108793 4.36827 0.174082 3.64396 0.482973C2.91965 0.791864 2.26328 1.2404 1.71232 1.80296C1.16135 2.36551 0.72658 3.03107 0.432836 3.76165C0.139092 4.49223 -0.00787319 5.27352 0.00032389 6.0609C0.00852097 6.84828 0.171725 7.62635 0.480615 8.35065C0.789506 9.07496 1.23803 9.73132 1.80059 10.2823C2.43084 10.8959 2.93178 11.6296 3.27383 12.44C3.61587 13.2504 3.79209 14.1212 3.79209 15.0008C3.79209 15.8805 3.61587 16.7512 3.27383 17.5616C2.93178 18.372 2.43084 19.1057 1.80059 19.7193L1.78394 19.7427Z" fill="#BBC9FF"/>
<path d="M0.0151365 24.2928C0.0151365 24.3861 0.0151324 24.4827 0.031788 24.5793L0.0684355 24.8624C0.0684355 24.959 0.0950791 25.0523 0.115066 25.1489C0.135052 25.2455 0.15504 25.3355 0.178358 25.4254C0.201676 25.5153 0.221663 25.6186 0.251643 25.7119L0.341579 25.985C0.37489 26.075 0.404876 26.1682 0.441519 26.2582C0.478161 26.3481 0.521464 26.4381 0.564768 26.528L0.688018 26.7912C0.734653 26.8778 0.787948 26.9644 0.841246 27.051C0.894544 27.1376 0.937852 27.2175 0.99115 27.3008L1.17103 27.5507C1.22766 27.6306 1.28429 27.7106 1.34758 27.7838C1.41087 27.8571 1.48416 27.9404 1.55411 28.0203C1.62406 28.1003 1.68735 28.1702 1.76064 28.2402C1.83392 28.3102 1.90721 28.3801 1.98049 28.4467C2.05378 28.5133 2.13705 28.59 2.217 28.6533C2.29694 28.7165 2.37023 28.7732 2.44684 28.8298C2.52346 28.8864 2.61674 28.9531 2.70335 29.0097C2.78996 29.0663 2.86323 29.1096 2.94651 29.1596C3.02979 29.2096 3.12307 29.2662 3.21301 29.3128C3.30295 29.3594 3.38289 29.3961 3.4695 29.4361C3.55611 29.476 3.64938 29.5227 3.74265 29.5593C3.83592 29.596 3.92253 29.6259 4.01247 29.6559C4.10241 29.6859 4.19901 29.7225 4.29228 29.7492C4.38556 29.7758 4.47549 29.7992 4.56876 29.8191C4.66203 29.8391 4.75864 29.8691 4.85524 29.8891C4.95185 29.9091 5.03845 29.9158 5.13172 29.9291C5.22499 29.9424 5.32493 29.9591 5.42486 29.969C5.52479 29.979 5.60808 29.969 5.70135 29.969C5.79462 29.969 5.90121 29.969 6.00115 29.969C6.10108 29.969 6.18102 29.969 6.27429 29.969C6.36756 29.969 6.47416 29.969 6.5741 29.969C6.67403 29.969 6.75398 29.9457 6.84392 29.9324C6.93386 29.9191 7.04711 29.9058 7.14372 29.8858C7.24032 29.8658 7.3236 29.8458 7.41353 29.8258C7.50347 29.8058 7.61007 29.7792 7.70667 29.7492C7.80328 29.7192 7.88322 29.6892 7.97316 29.6593C8.0631 29.6293 8.1597 29.596 8.25297 29.5593C8.34624 29.5227 8.43286 29.4794 8.51947 29.4361C8.60608 29.3928 8.69602 29.3561 8.78263 29.3128C8.86924 29.2695 8.95917 29.2096 9.04911 29.1596L9.29229 29.013L9.55211 28.8265C9.6254 28.7698 9.70201 28.7165 9.77529 28.6566C9.84858 28.5966 9.93851 28.5133 10.0218 28.4401C10.1051 28.3668 10.1784 28.3002 10.255 28.2235C12.0116 26.4998 13.4057 24.442 14.3553 22.1715C15.305 19.901 15.7909 17.4635 15.7846 15.0024C15.7846 14.7459 15.7846 14.4894 15.7646 14.2362C15.5115 14.2362 15.255 14.2162 15.0018 14.2162C12.5414 14.209 10.1043 14.6942 7.83428 15.6433C5.56424 16.5924 3.50707 17.9862 1.78396 19.7425C1.70068 19.8225 1.62407 19.9091 1.54745 19.9957C1.47083 20.0823 1.41087 20.1456 1.34758 20.2222C1.28429 20.2988 1.22433 20.3821 1.1677 20.4621C1.11107 20.542 1.04445 20.6219 0.99115 20.7052C0.937852 20.7885 0.887888 20.8751 0.837922 20.9617C0.787955 21.0483 0.734656 21.1316 0.691352 21.2149C0.648047 21.2982 0.601407 21.3948 0.561434 21.488C0.52146 21.5813 0.478154 21.6579 0.444843 21.7479C0.411531 21.8378 0.37489 21.9344 0.341579 22.031L0.251643 22.2942C0.221663 22.3908 0.201672 22.4907 0.175023 22.5873L0.115066 22.8571C0.095079 22.9537 0.0817599 23.0537 0.0684354 23.1536L0.0317879 23.4267C0.0317879 23.5267 0.031792 23.6233 0.0151364 23.7199L0.0151365 24.003L0.0151365 24.2928Z" fill="#476BF0"/>
<path d="M55.2349 14.7273C55.2349 16.2803 54.9508 17.6155 54.3826 18.733C53.8145 19.8456 53.0356 20.7027 52.046 21.304C51.0611 21.9006 49.9413 22.1989 48.6866 22.1989C47.4271 22.1989 46.3026 21.9006 45.313 21.304C44.3282 20.7027 43.5517 19.8433 42.9835 18.7259C42.4153 17.6084 42.1312 16.2756 42.1312 14.7273C42.1312 13.1742 42.4153 11.8414 42.9835 10.7287C43.5517 9.61127 44.3282 8.75426 45.313 8.15767C46.3026 7.55634 47.4271 7.25568 48.6866 7.25568C49.9413 7.25568 51.0611 7.55634 52.046 8.15767C53.0356 8.75426 53.8145 9.61127 54.3826 10.7287C54.9508 11.8414 55.2349 13.1742 55.2349 14.7273ZM53.0616 14.7273C53.0616 13.5436 52.8699 12.5469 52.4863 11.7372C52.1075 10.9228 51.5867 10.3073 50.9238 9.89062C50.2657 9.46922 49.5199 9.25852 48.6866 9.25852C47.8485 9.25852 47.1004 9.46922 46.4423 9.89062C45.7842 10.3073 45.2633 10.9228 44.8798 11.7372C44.501 12.5469 44.3116 13.5436 44.3116 14.7273C44.3116 15.911 44.501 16.91 44.8798 17.7244C45.2633 18.5341 45.7842 19.1496 46.4423 19.571C47.1004 19.9877 47.8485 20.196 48.6866 20.196C49.5199 20.196 50.2657 19.9877 50.9238 19.571C51.5867 19.1496 52.1075 18.5341 52.4863 17.7244C52.8699 16.91 53.0616 15.911 53.0616 14.7273ZM67.3248 7.45455H69.5265V17.0213C69.5265 18.0393 69.2873 18.9413 68.8091 19.7273C68.3309 20.5085 67.6586 21.1241 66.7921 21.5739C65.9256 22.0189 64.91 22.2415 63.7452 22.2415C62.5852 22.2415 61.5719 22.0189 60.7054 21.5739C59.839 21.1241 59.1666 20.5085 58.6884 19.7273C58.2102 18.9413 57.9711 18.0393 57.9711 17.0213V7.45455H60.1657V16.8438C60.1657 17.5019 60.3101 18.0866 60.5989 18.598C60.8925 19.1094 61.3068 19.5118 61.8418 19.8054C62.3768 20.0942 63.0113 20.2386 63.7452 20.2386C64.4838 20.2386 65.1207 20.0942 65.6557 19.8054C66.1955 19.5118 66.6074 19.1094 66.8915 18.598C67.1803 18.0866 67.3248 17.5019 67.3248 16.8438V7.45455ZM71.9998 9.34375V7.45455H83.2569V9.34375H78.7186V22H76.5311V9.34375H71.9998ZM93.2321 7.45455V22H91.0375V7.45455H93.2321ZM95.7108 9.34375V7.45455H106.968V9.34375H102.43V22H100.242V9.34375H95.7108Z" fill="#252525"/>
</svg>
