<svg width="16" height="16" viewBox="0 0 16 16" fill="none" xmlns="http://www.w3.org/2000/svg">
<g clip-path="url(#clip0_2248_9361)">
<path d="M13.7846 6.37296C13.7846 8.67212 10.7796 12.7595 9.07872 14.8637C8.9478 15.0289 8.78122 15.1623 8.59147 15.254C8.40171 15.3458 8.19368 15.3934 7.98292 15.3934C7.77216 15.3934 7.56413 15.3458 7.37438 15.254C7.18462 15.1623 7.01805 15.0289 6.88712 14.8637C5.21317 12.7595 2.21484 8.67212 2.21484 6.37296C2.26593 4.87637 2.89638 3.45816 3.97315 2.41751C5.04992 1.37687 6.48883 0.795166 7.98629 0.795166C9.48375 0.795166 10.9227 1.37687 11.9994 2.41751C13.0762 3.45816 13.7066 4.87637 13.7577 6.37296H13.7846Z" stroke="#476BF0" stroke-width="1.6" stroke-miterlimit="10"/>
<path d="M8.01654 8.71246C9.3049 8.71246 10.3493 7.66804 10.3493 6.37968C10.3493 5.09133 9.3049 4.04691 8.01654 4.04691C6.72819 4.04691 5.68377 5.09133 5.68377 6.37968C5.68377 7.66804 6.72819 8.71246 8.01654 8.71246Z" stroke="#476BF0" stroke-width="1.6" stroke-miterlimit="10"/>
</g>
<defs>
<clipPath id="clip0_2248_9361">
<rect width="16" height="16" fill="white"/>
</clipPath>
</defs>
</svg>
