<svg width="20" height="20" viewBox="0 0 20 20" fill="none" xmlns="http://www.w3.org/2000/svg">
<g clip-path="url(#clip0_105_132426)">
<path d="M19.045 19.05L14.3268 14.3318M16.9177 8.93184C16.9177 10.5105 16.4496 12.0537 15.5726 13.3663C14.6955 14.6789 13.4489 15.702 11.9904 16.3061C10.5319 16.9102 8.92707 17.0683 7.37875 16.7603C5.83043 16.4523 4.4082 15.6921 3.29192 14.5758C2.17564 13.4596 1.41545 12.0373 1.10747 10.489C0.799493 8.94069 0.957561 7.33582 1.56169 5.87733C2.16581 4.41885 3.18887 3.17226 4.50147 2.29521C5.81407 1.41815 7.35727 0.950021 8.93593 0.950021C9.98641 0.946431 11.0273 1.15023 11.9988 1.54975C12.9704 1.94926 13.8535 2.53664 14.5975 3.27818C15.3416 4.01972 15.932 4.90083 16.3348 5.87101C16.7377 6.84119 16.945 7.88135 16.945 8.93184H16.9177Z" stroke="#476BF0" stroke-width="1.6" stroke-miterlimit="10"/>
</g>
<defs>
<clipPath id="clip0_105_132426">
<rect width="20" height="20" fill="white"/>
</clipPath>
</defs>
</svg>
