<svg width="20" height="20" viewBox="0 0 20 20" fill="none" xmlns="http://www.w3.org/2000/svg">
<path d="M9.68141 8.83636C11.8705 8.83636 13.645 7.06178 13.645 4.87273C13.645 2.68367 11.8705 0.909091 9.68141 0.909091C7.49235 0.909091 5.71777 2.68367 5.71777 4.87273C5.71777 7.06178 7.49235 8.83636 9.68141 8.83636Z" stroke="white" stroke-width="1.6" stroke-miterlimit="10"/>
<path d="M9.6723 19.0909C12.4169 19.0914 15.0839 18.1801 17.2541 16.5C16.4779 15.1803 15.3704 14.0863 14.0414 13.3261C12.7124 12.566 11.2079 12.1661 9.67685 12.1661C8.1458 12.1661 6.64129 12.566 5.31228 13.3261C3.98326 14.0863 2.87585 15.1803 2.09961 16.5C4.26642 18.18 6.93049 19.0915 9.6723 19.0909Z" stroke="white" stroke-width="1.6" stroke-miterlimit="10"/>
</svg>
