<svg width="18" height="18" viewBox="0 0 18 18" fill="none" xmlns="http://www.w3.org/2000/svg">
<path fill-rule="evenodd" clip-rule="evenodd" d="M17.6203 4.66729C17.4118 3.89288 16.8069 3.28797 16.0325 3.07952C14.6311 2.70026 9 2.70026 9 2.70026C9 2.70026 3.36887 2.70026 1.96752 3.07952C1.19311 3.28797 0.588196 3.89288 0.379749 4.66729C0.118085 6.09646 -0.00889312 7.54702 0.000483682 8.99992C-0.00889312 10.4528 0.118085 11.9034 0.379749 13.3325C0.588196 14.107 1.19311 14.7119 1.96752 14.9203C3.36887 15.2996 9 15.2996 9 15.2996C9 15.2996 14.6311 15.2996 16.0325 14.9203C16.8069 14.7119 17.4118 14.107 17.6203 13.3325C17.8819 11.9034 18.0089 10.4528 17.9995 8.99992C18.0089 7.54702 17.8819 6.09646 17.6203 4.66729ZM7.20064 11.6996V6.2999L11.874 8.99976L7.20064 11.6996Z" fill="#476BF0"/>
</svg>
